<svg width="422" height="89" viewBox="0 0 422 89" fill="none" xmlns="http://www.w3.org/2000/svg">
<g clip-path="url(#clip0_3966_4)">
<path d="M156.896 86.1392C142.931 85.7576 128.966 85.1853 115.048 84.3744C83.0795 82.5143 51.1587 79.4618 19.523 74.7876C15.6754 74.2153 12.5403 73.0229 10.0227 71.4012C7.17267 69.5411 5.17762 67.1563 3.80009 64.4854C2.18505 61.2421 1.37753 53.0384 1.33003 44.9302C1.33003 36.7265 2.09005 28.4275 3.65759 25.1365C4.98762 22.3702 6.98267 19.9377 9.88024 18.0299C12.3978 16.3605 15.5804 15.1681 19.4755 14.5958C51.1112 9.92161 83.032 6.86909 115 5.00896C140.176 3.5304 165.446 2.81496 190.717 2.67188L189.055 6.726C164.449 6.91678 139.796 7.63222 115.19 9.06309C83.3645 10.9232 51.5862 13.9757 20.0455 18.6499C16.7204 19.1269 14.1078 20.1285 12.0653 21.4639C9.83274 22.9425 8.3127 24.8026 7.26767 26.9489C5.93764 29.6676 5.32013 37.2989 5.32013 44.9779C5.32013 52.5615 6.03264 60.0974 7.36268 62.7683C8.4077 64.8193 9.97524 66.6794 12.1603 68.1103C14.2028 69.4457 16.7679 70.3996 20.0455 70.8766C51.6337 75.5508 83.3645 78.6033 115.19 80.4634C129.583 81.3219 144.023 81.8943 158.416 82.2758L156.896 86.1392Z" stroke="black" stroke-width="5.6693" stroke-miterlimit="22.9256" stroke-linecap="round" stroke-linejoin="round"/>
<path d="M156.896 86.1392C142.931 85.7576 128.966 85.1853 115.048 84.3745C83.0795 82.5143 51.1587 79.4618 19.523 74.7876C15.6754 74.2153 12.5403 73.0229 10.0227 71.4012C7.17267 69.5411 5.17762 67.1563 3.80009 64.4854C2.18505 61.2421 1.37753 53.0384 1.33003 44.9302C1.33003 36.7265 2.09005 28.4275 3.65759 25.1365C4.98762 22.3702 6.98267 19.9377 9.88024 18.0299C12.3978 16.3605 15.5804 15.1681 19.4755 14.5958C51.1112 9.92161 83.032 6.86909 115 5.00896C140.176 3.5304 165.446 2.81496 190.717 2.67188L189.055 6.726C164.449 6.91678 139.796 7.63222 115.19 9.06309C83.3645 10.9232 51.5862 13.9757 20.0455 18.6499C16.7204 19.1269 14.1078 20.1285 12.0653 21.4639C9.83274 22.9425 8.3127 24.8026 7.26767 26.9489C5.93764 29.6676 5.32013 37.2989 5.32013 44.9779C5.32013 52.5615 6.03264 60.0974 7.36268 62.7683C8.4077 64.8193 9.97524 66.6794 12.1603 68.1103C14.2028 69.4457 16.7679 70.3996 20.0455 70.8766C51.6337 75.5508 83.3645 78.6033 115.19 80.4634C129.583 81.3219 144.023 81.8943 158.416 82.2758L156.896 86.1392Z" fill="#231F20"/>
<path d="M211 86.71C202.212 86.7577 193.425 86.7577 184.637 86.6623L186.252 82.6559C194.517 82.7513 202.735 82.7513 211 82.7036C242.873 82.8944 274.841 82.2266 306.715 80.3665C338.541 78.5064 370.319 75.4538 401.86 70.7797C405.137 70.3027 407.75 69.3011 409.745 68.0133C411.93 66.5825 413.497 64.7223 414.542 62.6714C415.872 60.0005 416.537 52.5123 416.585 44.881C416.585 37.202 415.967 29.5707 414.637 26.852C413.64 24.7534 412.072 22.8456 409.84 21.367C407.797 20.0316 405.185 19.0299 401.86 18.553C370.319 13.8311 338.541 10.7786 306.715 8.91847C292.417 8.10765 278.072 7.48761 263.774 7.10604L265.389 3.09961C279.259 3.48117 293.129 4.05352 306.952 4.86435C338.921 6.72448 370.841 9.77699 402.477 14.4512C406.42 15.0235 409.555 16.2636 412.072 17.8852C414.922 19.7931 416.965 22.2255 418.295 24.9919C419.862 28.2829 420.67 36.5819 420.622 44.7856C420.622 52.9415 419.767 61.1452 418.152 64.3408C416.822 67.0117 414.78 69.4442 411.93 71.2566C409.412 72.8783 406.277 74.0707 402.43 74.643C370.794 79.3172 338.873 82.3697 306.905 84.2298C275.031 86.2331 243.016 86.8531 211 86.71Z" fill="#231F20" stroke="#231F20" stroke-width="5.6693" stroke-miterlimit="22.9256" stroke-linecap="round" stroke-linejoin="round"/>
<path fill-rule="evenodd" clip-rule="evenodd" d="M165.256 89H173.427C175.517 89 177.939 87.283 178.794 85.1843L191.572 53.7052C192.712 51.6543 195.135 50.0327 197.272 50.0327H229.288C231.568 50.0327 234.276 48.1249 235.226 45.8355L237.791 39.7304C238.788 37.4411 237.696 35.5332 235.368 35.5332H202.26C200.597 35.1994 199.837 33.6731 200.407 31.813L206.107 17.8859C207.247 15.7872 209.717 14.1656 211.855 14.1656H251.138C253.418 14.1656 256.126 12.2578 257.076 9.96838L259.499 4.19721C260.449 1.90782 259.356 0 257.076 0H202.925H201.405C199.315 0 196.845 1.86013 195.99 3.95874L163.024 85.1843C162.121 87.283 163.166 89 165.256 89Z" fill="#231F20"/>
<path fill-rule="evenodd" clip-rule="evenodd" d="M90.1097 30.0482H103.172H106.735C108.208 30.0482 109.918 28.8558 110.535 27.3295L112.103 23.6093C112.72 22.1307 112.008 20.8906 110.535 20.8906H103.267C98.4223 20.8906 88.4471 20.8906 83.5545 20.8906C81.1794 20.8906 79.0419 21.6538 78.0444 24.0862L62.5115 62.4812C61.3715 65.2952 61.419 68.3955 65.7416 68.3955C74.4343 68.3955 82.6995 68.3955 91.3922 68.3955C92.8647 68.3955 94.5748 67.2031 95.1923 65.6768L96.7598 61.9565C97.3773 60.478 96.6648 59.2379 95.1923 59.2379H79.1844C77.5218 59.2379 76.4293 58.3794 77.0468 56.8054L79.1844 51.4635C79.6594 50.3188 80.1819 49.1741 81.4169 49.1741H96.4748C97.9473 49.1741 99.6574 47.9817 100.275 46.4555L101.842 42.7352C102.46 41.2567 101.747 40.0166 100.275 40.0166H86.5471C85.0745 40.0166 84.362 38.8242 84.9795 37.2979L87.0221 32.0991C87.5921 31.0021 88.9221 30.0482 90.1097 30.0482Z" fill="#231F20"/>
<path fill-rule="evenodd" clip-rule="evenodd" d="M277.549 72.0204C282.584 71.782 288.189 67.6801 290.232 62.6721L302.06 33.2916C305.195 25.4695 302.297 18.0767 293.414 17.409C288.189 17.0274 272.799 16.8843 267.621 17.4567C262.491 17.9813 257.361 21.9878 255.461 26.7573L243.633 56.1378C240.213 64.6753 244.203 71.7343 252.516 72.0204C260.211 72.2589 269.901 72.3066 277.549 72.0204ZM274.794 61.2412C276.409 61.0981 278.214 59.7627 278.832 58.141L289.329 32.0038C289.947 30.4776 289.519 28.379 287.619 28.2359C284.864 27.9974 274.034 27.9974 271.041 28.2359C269.331 28.379 267.716 29.6667 267.099 31.2407L256.506 57.6164C255.651 59.6673 256.839 61.0981 258.406 61.2412C261.494 61.5751 271.659 61.5274 274.794 61.2412Z" fill="#231F20"/>
<path fill-rule="evenodd" clip-rule="evenodd" d="M129.488 50.2236H135.236C136.518 50.2236 137.231 51.5114 137.468 52.7992L140.556 68.2525C140.983 70.2558 142.931 71.9251 144.973 71.9251H151.244C153.239 71.9251 154.569 70.2558 154.189 68.2525L150.579 50.2236H153.381C156.611 50.2236 160.316 47.8388 162.121 44.7386C163.499 42.3538 167.584 31.6223 167.916 28.9037C168.866 21.4631 165.209 17.409 159.129 17.409C149.819 17.409 142.123 17.3613 132.813 17.3613C130.058 17.3613 127.636 18.2198 126.495 21.0339L107.353 68.2525C106.545 70.2558 107.495 71.9251 109.538 71.9251H115.57C117.565 71.9251 119.893 70.2558 120.748 68.2525L126.97 52.8946C127.446 51.5591 128.111 50.2236 129.488 50.2236ZM135.046 40.4937H147.823C149.819 40.4937 151.624 39.2059 152.479 37.3935C153.429 35.438 154.426 32.6716 154.521 31.67C154.759 29.5714 153.429 27.9974 151.101 27.9974H139.463C138.133 27.9974 136.566 29.0944 135.996 30.4299L133.146 37.3458C132.528 39.0628 133.336 40.4937 135.046 40.4937Z" fill="#231F20"/>
<path fill-rule="evenodd" clip-rule="evenodd" d="M323.198 49.5072H325.858C326.998 49.5072 327.615 50.6519 327.805 51.7489L330.513 65.199C330.845 66.9638 332.603 68.3946 334.36 68.3946H340.536C342.293 68.3946 343.433 66.9638 343.101 65.199L339.966 49.5072H342.436C345.238 49.5072 348.468 47.4086 350.036 44.7376C351.223 42.6867 354.643 33.9107 354.928 31.5736C355.736 24.467 351.508 20.9852 346.236 20.9852C338.113 20.9852 332.65 20.9375 324.528 20.9375C322.153 20.9375 320.015 21.7006 319.018 24.1331L302.345 65.199C301.632 66.9638 302.487 68.3946 304.245 68.3946H311.132C312.89 68.3946 314.885 66.9638 315.645 65.199L321.06 51.8442C321.44 50.6519 321.963 49.5072 323.198 49.5072ZM327.995 41.0173H336.783C338.541 41.0173 340.061 39.8727 340.821 38.3464C341.676 36.6294 342.531 34.2446 342.626 33.3861C342.816 31.5259 341.676 30.1904 339.681 30.1904H331.938C330.75 30.1904 329.42 31.1444 328.945 32.3368L326.475 38.3464C325.81 39.7773 326.523 41.0173 327.995 41.0173Z" fill="#231F20"/>
<path fill-rule="evenodd" clip-rule="evenodd" d="M366.804 23.2754C365.521 23.2754 364.049 24.3247 363.479 25.6125L361.721 29.5235C361.151 30.8113 361.769 31.8606 363.051 31.8606H372.124C372.931 31.8606 373.786 32.7668 373.311 33.9592L361.484 63.1012C360.819 64.6752 361.626 65.9629 363.194 65.9629H369.369C370.936 65.9629 372.789 64.6752 373.406 63.1012L385.424 33.5299C386.042 32.0037 386.944 31.9083 388.322 31.9083H394.307C395.589 31.9083 397.062 30.859 397.632 29.5712L399.389 25.6602C399.959 24.3724 399.342 23.3231 398.059 23.3231C386.137 23.2754 378.679 23.2754 366.804 23.2754Z" fill="#231F20"/>
<path fill-rule="evenodd" clip-rule="evenodd" d="M33.9158 23.2754C32.6333 23.2754 31.1607 24.3247 30.5907 25.6125L28.8332 29.5712C28.2632 30.859 28.8807 31.9083 30.1632 31.9083H39.2359C40.0434 31.9083 40.8985 32.8145 40.4235 34.0069L28.5957 63.1489C27.9307 64.7229 28.7382 66.0106 30.3057 66.0106H36.4809C38.0484 66.0106 39.9009 64.7229 40.5185 63.1489L52.5362 33.5776C53.1538 32.0514 54.0563 31.956 55.4338 31.956H62.464C63.7465 31.956 65.219 30.9067 65.7891 29.6189L67.5466 25.7079C68.1166 24.4201 67.4991 23.3708 66.2166 23.3708C54.2938 23.2754 45.7911 23.2754 33.9158 23.2754Z" fill="#231F20"/>
</g>
<defs>
<clipPath id="clip0_3966_4">
<rect width="422" height="89" fill="white"/>
</clipPath>
</defs>
</svg>
